<?xml version="1.0" encoding="UTF-8"?>
<!-- Generator: Adobe Illustrator 21.0.0, SVG Export Plug-In . SVG Version: 6.00 Build 0)  -->
<svg version="1.1" id="Calque_1" xmlns="http://www.w3.org/2000/svg" xmlns:xlink="http://www.w3.org/1999/xlink" x="0px" y="0px" viewBox="0 0 533.3 170" style="enable-background:new 0 0 533.3 170;" xml:space="preserve">
<style type="text/css">
	.st0{fill:#FFFFFF;}
	.st1{fill:#FDC300;}
</style>
<path class="st0" d="M432.4,96.8c-1.1-1.4-4.1-0.5-5.5,0.4s-3.4,2.1-5.2,2.4c-1.8,0.4-2.8,0.1-2.8,0.1s2.8-12.6,4.1-17.9  c1.3-5.3,4.9-19.1,3.5-21.6s-10-5.9-13.7-5.6c-3.8,0.3-5.9,5-6.2,7.5c0,0-8.2-3.3-20.2,7c-13.1,11.3-15.2,22.3-15.4,24.5  c-0.3,3.2,0.1,5,0.1,5s-4.3,4.3-8.4,3.8c-4.1-0.6-2.3-7-1.2-10.4c1.1-3.4,9.2-19.4,7.8-24.5c-1.4-5.1-9.2-10.2-18.3-4.8  s-12.1,11.1-13.4,11.6s2.1-7,2.7-8.3s3-4.6-0.2-6.3c-3.2-1.8-8.3-2.6-10.5-1.6c-2.1,1-7.3,10.2-9.3,18.4S317.1,97,317.1,97  s-3.1,4.4-7,4.4c-4,0-3.6-3.5-2.8-7.5c0.8-4.1,6-18.6,6.8-22.5s2.6-9.9-6.3-10.1c-8.8-0.2-11.7,7-14.3,16.4  c-2.6,9.4-2.4,19.1-2.4,19.1s-2,2.6-7,4.2s-6,0.7-6,0.7s6.5-3.8,8.7-21.2c2.3-17.4-4.1-18.3-8.6-19.2s-9.4,0.7-13.6,4.7  s-5.3,6.6-5.3,5.3c0.1-1.3,1.5-6,3.1-9c1.1-2.1,0.1-4.7-5.2-5.3c-5.3-0.6-6.8,1.1-9.9,7.3c-3.1,6.3-7.2,20.8-8.2,26.2  c-1,5.5-1.7,9.9-1.7,9.9s-3.3,3.5-6.3,1.7s-1.7-8,1-14.4s10.1-20.8,0.4-26c-9.7-5.2-22.5,8.2-22.5,8.2s1.4-7.6-7-9  c-8.3-1.4-15.1,4.8-17.6,7.1c-2.8,2.6-5.4,6.5-5.4,5.2s2.6-7.2,3.3-9c0.8-1.8,1.8-3.7-4.1-5.8c-5.9-2.1-9.1-0.4-10.9,2.3  c-1.8,2.7-4.5,9.6-5.9,16.4c-1.4,6.9-2.9,20.2-2.9,20.2s-3.8,4.5-7.3,4.5c-3.4,0-4.4-1.6-3.3-6.3c1.1-4.6,5.4-23.3,6.1-26.5  c0.7-3.1,2.6-6.8-1.3-9.4c-3.9-2.6-11.7-4.1-12.4-1.8c-0.8,2.2-1.1,3.9-1.1,3.9s-6.3-3-14.8,0.4c-8.2,3.3-14.8,10.5-19.1,20.1  c-2.8,6.3-3.6,13.3-3.6,13.3s-11.3,9-21.2,5.2s-9-18.2-7-24.3c1.9-6,7.4-11.3,13.1-11.6c3.9-0.2,3.8,3,3.8,3s-9.2,6.3-6.3,10.1  c3,3.8,11,5.3,15,1.9c4.1-3.4,12-24.1-11.7-24C64.8,55.9,56,77.3,56.8,89.7c0.7,10.7,5.1,15.2,5.1,15.2s-0.8,1.8-3.3,1.1  c-4.1-1.1-8.7-7.5-16.6-6.8c-7.9,0.8-12.3,8.6-13.3,9.7c0,0-1,1.1-0.4,1.9c0.6,0.7,1.3,0.4,2.1-0.4c0.8-0.7,5.1-4.6,9-4.4  c3.9,0.1,9.3,6.1,16,5.8c6.7-0.3,8-5.4,8-5.4s4.3,6,16.9,6.3c12.7,0.4,24.1-8.8,24-8.7c-0.1,0.1,2.3,8.7,13.7,9.1  s16.5-10.5,16.5-10.5s0.1,9.3,9.7,9.8c9.6,0.5,16.4-6.6,16.4-6.6s1.2,5,7.1,6c5.9,1,6.3-1.6,6.6-3.3c0.3-1.7,2.2-11.7,3.5-16.4  c1.3-4.7,4.7-14.6,11.1-16.7c6.4-2.1,5.1,2.2,2.2,11.1c-2.8,8.9-6.2,19-4.4,22.3c1.8,3.2,13.4,6.1,14.5,1.8  c1.1-4.3,1.6-13.6,4.5-21.4c2.8-7.9,7-11.6,8.8-12.8c1.8-1.2,8.3-3.7,5.8,3.3s-8,20.2-6.6,25.3c1.4,5.1,8.1,8.8,14.5,7.7  c6.4-1.1,8-2.8,8-2.8s-2.4,21.5,1.4,28.9c3.8,7.4,11.2,7.8,15.1,6.7c4-1.1,2.8-4.6,1.4-11.9c-1.4-7.3-2.2-21.3,0.4-36.1  c2.6-14.8,11.7-25.9,16.1-23.6s-0.1,15.6-1.3,18.4c-1.2,2.8-2.4,8-6.3,8.3s-6.2-0.8-6.9,1.6c-0.7,2.3,0,7.5,4.9,9s12.9,1.8,18.4,0.1  c5.5-1.7,12.2-6.2,12.2-6.2s0.4,6.4,6.8,7.4s12-1.6,15.6-4.1c3.6-2.4,3.8-3,3.8-2.8c0.1,0.2,1.2,7.2,8.4,6.9  c7.2-0.3,4.8-1.8,5.8-7.7c1-5.9,2.5-17,7.3-23.2s9.3-7.3,11.2-6.3c1.8,1-1.6,9.2-3.1,12.5c-1.4,3.3-7.9,17.7,0.8,23  c8.7,5.3,19.2-1.6,20.4-2.4c1.2-0.9,4.5-3.3,4.5-3.2s4.1,7.2,12.4,7.9c8.2,0.7,15.6-6.5,15.6-6.3c0.1,0.2-1.4,20.6-6.3,25.5  c-4.9,4.8-12.4,1.2-15.4-4.7c-3-5.9-2.9-6.5-5-6.7c-2.1-0.1-10.8,5.3-10.5,9.5c0.4,4.1,5.8,14.2,22.6,14.7  c16.9,0.4,23.9-17.5,24.9-19.6s5-14.9,5-14.9s5-0.4,10.5-4.3C432.5,102.4,433.5,98.2,432.4,96.8z M132.7,94.7  c-2.6,5.6-8.5,6.8-11.5,4c-3.1-2.8-1-15.5,3.8-22.5s10.6-10.7,14.2-8C139.2,68.1,135.3,89.1,132.7,94.7z M399.5,96.3  c-2.4,5.7-8.2,7-11.4,4.4c-3.2-2.7-1.5-15.5,3.1-22.7c4.6-7.2,10.2-11,13.9-8.5C405.1,69.4,401.9,90.6,399.5,96.3z"/>
<path class="st0" d="M308.1,51.9c1.8,1,6.3,2.2,8,0.3s4.4-8.2,5.8-9.8s6.3-5.1,0-8.3s-9.3-3.1-10.9-2.8c-1.6,0.3-6.2,2.6-6.8,9.5  C303.5,47.7,305.7,50.6,308.1,51.9"/>
<path class="st0" d="M412.1,136.3c-0.3,0.6-0.5,2.5,2.1,3.3s3.1-1.9,2.9-3s-1.8-1.7-3.2-1.5C412.9,135.3,412.4,135.7,412.1,136.3"/>
<path class="st0" d="M503.8,133.3c-0.4-0.4-1.1,0.1-2,0.8s-5.5,2.7-8.2,1.7s-6.3-4.2-9.6-4c-3.3,0.3-4.7,1.6-5.9,2.5  s-3.4,2.6-4.5,2.1s-0.5-2.9,0.3-4.7s3.1-6.9-0.1-7.8S467,127,467,127s0.7-2.8-2.1-3.2c-2.8-0.4-6.2,2.9-7.1,4.1s0.3-2,0.5-2.3  c0.2-0.4,1.1-1.5,0.3-2c-0.7-0.4-2.7-1-3.4-0.6c-0.8,0.4-2,2.8-2.4,4.3c-0.4,1.5-1.1,5.5-1.1,5.5s-0.6,0.1-1.3,0  c-0.7-0.1-0.9-0.5-0.9-0.5s1.6-3.7-0.2-6.6s-4.3-1.3-4.3-1.3s-1.1-0.9-2.9-0.5c-1.9,0.4-4.9,2.5-6.1,5.7c-1.2,3.2-0.9,5.5-0.9,5.5  s-4.4,3.1-7.3,1.6s-2.6-5.8-2.1-7.2c0.5-1.5,3.4-5.3,5.4-2.5c0,0.1-2.5,1.8-2.2,2.6c0.3,0.9,2.6,1.5,3.3,1.3c1.1-0.3,3-2.2,2.1-4.9  c-1-2.9-3.9-2.8-6.7-2.2c-2.1,0.5-8.9,4.3-6.9,11.4c1.4,4.9,6.1,5.2,10.1,4.2c2.8-0.7,4.9-2.2,4.9-2.2s1.1,2.4,4.3,2.9  c3.2,0.5,6.1-1.7,7.4-3.4s1.5-2.2,1.5-2.2s0.2,0.4,1.2,0.6c1,0.2,1.6,0,1.6,0s-0.4,2.8,0.9,4.1c1.2,1.2,3,0.7,3.3,0.3  c0.2-0.5,0.9-6,2-7.9s1.9-2.9,3.2-3.3c1.3-0.4,1.3,0.5,1.1,1.2c-0.1,0.6-1.4,5-1.9,6.6c-0.5,1.7-0.6,3.2,0.5,3.7s3.1,0.5,3.4,0.1  s0.3-1.4,0.4-1.8c0.1-0.4,0.6-4.9,2.1-7.1c1.4-2.1,3-2.8,3.7-2.3c0.7,0.4,0,1.8-1,4.9c-1,3-1.8,4.9,0.7,6.3c2.5,1.3,5.4-0.4,7.5-2.1  s2.9-2.4,4.6-1s6.7,3.9,10.7,4c3.9,0.1,8.8-3.2,10-4.7C503.9,134,504.2,133.7,503.8,133.3z M444.8,134.3c-0.9,1.7-2.5,2.7-3.7,2.6  c-1.2-0.1-2.7-1.5-1.7-6s4.6-5.3,4.6-5.3c-1.8,3,1.7,5.1,1.7,5.1S445.9,132.3,444.8,134.3z"/>
<path class="st1" d="M437.4,83.7c0,0-10-0.2-10.2,12s12.9,16.6,25.2,16.8c12.3,0.2,23.1-7.3,23.4-16s-8.4-11.9-14.7-18.1  c-2.6-2.5-8.3-8-7-11.5s6.4-4,7.9-1.6s4.2,8.4,8.7,8.7c4.5,0.4,8.1-5.8,4.8-10.3c-3.3-4.6-8.1-7.5-18.4-7.1  c-10.2,0.4-17.5,6-17.8,13.4c-0.3,7.3,8.8,13.4,13.9,18.6c4.9,5.1,5.2,9,3.3,11.5c-2.4,3.2-7.6,4.5-12.9,2.2s-2.6-5.1-1.6-5.5  s6-2.8,4.3-6.9C444.7,85.8,441.8,84.1,437.4,83.7"/>
</svg>