<?xml version="1.0" encoding="UTF-8"?>
<!-- Generator: Adobe Illustrator 12.0.1, SVG Export Plug-In . SVG Version: 6.00 Build 51448)  -->
<!DOCTYPE svg PUBLIC "-//W3C//DTD SVG 1.1//EN" "http://www.w3.org/Graphics/SVG/1.1/DTD/svg11.dtd">
<svg version="1.1" id="Calque_1" xmlns="http://www.w3.org/2000/svg" xmlns:xlink="http://www.w3.org/1999/xlink" width="177.893" height="31.358" viewBox="0 0 177.893 31.358" overflow="visible" enable-background="new 0 0 177.893 31.358" xml:space="preserve">
<polyline fill="#E42829" points="0,29.688 18.125,29.688 20.038,25.215 11.408,25.215 21.311,2.131 8.861,2.131 6.893,6.719   9.845,6.719 0,29.688 "/>
<path fill="#E42829" d="M24.496,2.124h8.627c-0.81,4.343-3.937,9.148-10.074,10.596c1.1-2.429,1.882-4.399,2.52-5.964h-3.07  L24.496,2.124"/>
<polyline fill="#E42829" points="50.728,0 45.283,0 44.3,2.234 37.063,2.234 35.15,6.765 38.103,6.765 28.318,29.69 46.095,29.69   48.063,25.161 39.377,25.161 42.736,17.366 51.423,17.366 53.161,13.24 44.53,13.24 47.311,6.819 55.938,6.819 57.85,2.292   49.743,2.292 50.728,0 "/>
<path fill="#E42829" d="M71.784,6.377c2.066-0.09,4.094,1.272,3.314,3.191l-6.237,14.619l-1.418-2.314l-3.46,1.919l0.85,1.301  c-3.008,0-2.492-2.484-1.755-3.896l5.443-12.705C69.158,7.063,70.481,6.431,71.784,6.377V2C62.718,2.063,58.88,8.608,56.779,13.064  c-6.011,12.761,3.552,16.543,5.729,16.938c1.247,0.225,3.742,0.225,4.992,0l0.793,1.355H73l-1.587-2.43  c3.517-0.225,7.657-5.024,9.472-8.862C82.7,16.228,88.01,2.3,71.784,2V6.377"/>
<path fill="#E42829" d="M100.529,2.197H88.54l-1.969,4.517h3.069l-5.674,13.378c-2.316,5.055,1.042,9.707,8.512,9.769  c7.7,0.065,10.308-4.714,11.119-6.702l8.92-20.961h-4.924l-8.918,20.735c-1.564,3.066-8.512,2.785-6.545-1.135L100.529,2.197"/>
<polyline fill="#E42829" points="127.395,2.263 115.642,2.263 113.73,6.75 116.335,6.75 106.55,29.744 115.525,29.744   127.395,2.263 "/>
<path fill="#E42829" d="M142.317,6.724h1.12c2.259,0,0.926,4.526,0.521,5.327s-1.563,3.494-3.301,3.494h-3.706l3.823-8.821H142.317  V2.258h-11.618l-2,4.465h3.156l-9.729,22.964h8.977l4.051-9.563h8.921c4.226,0,7.217-4.165,8.626-7.788  c1.449-3.723,0.466-10.078-5.325-10.078h-5.059V6.724"/>
<polyline fill="#E42829" points="177.893,2.092 156.638,2.092 154.644,6.76 157.886,6.76 148.127,29.573 166.077,29.573   167.874,25.486 158.723,25.486 162.141,17.495 171.292,17.495 173.085,13.293 163.935,13.293 166.773,6.729 175.862,6.729   177.893,2.092 "/>
</svg>